# xmcd CD database file
#
# Track frame offsets:
#	150
#	25762
#	52527
#	64367
#	94412
#	124622
#	129682
#	147437
#	173762
#
# Disc length: 2623 seconds
#
# Revision: 1
# Processed by: cddbd v1.5.2PL0 Copyright (c) Steve Scherf et al.
# Submitted via: CDex 1.51
#
DISCID=7a0a3d09
DTITLE=Roger Chapman - Live In Hamburg
DYEAR=1998
DGENRE=Rock
TTITLE0=Midnite Child
TTITLE1=Who Pulled The Nite Down
TTITLE2=Talking About You
TTITLE3=Short List
TTITLE4=Can't Get In
TTITLE5=Keep A Knockin'
TTITLE6=(I'm Your) Hoochie Coochie Man
TTITLE7=Let's Spend The Night Together
TTITLE8=Keep Forgettin'
EXTD=YEAR: 1998
EXTT0=
EXTT1=
EXTT2=
EXTT3=
EXTT4=
EXTT5=
EXTT6=
EXTT7=
EXTT8=
PLAYORDER=
